<?xml version="1.0" standalone="no"?>
<!DOCTYPE svg PUBLIC "-//W3C//DTD SVG 20010904//EN"
 "http://www.w3.org/TR/2001/REC-SVG-20010904/DTD/svg10.dtd">
<svg version="1.0" xmlns="http://www.w3.org/2000/svg"
 width="500.000000pt" height="500.000000pt" viewBox="0 0 500.000000 500.000000"
 preserveAspectRatio="xMidYMid meet">

<g transform="translate(0.000000,500.000000) scale(0.100000,-0.100000)"
fill="#000000" stroke="none">
<path d="M1687 3703 c-10 -9 -8 -313 1 -313 5 0 14 17 20 39 7 21 22 51 34 66
77 98 349 185 581 185 l78 0 -4 -1027 c-3 -880 -5 -1036 -18 -1083 -30 -108
-66 -152 -141 -170 -27 -7 -48 -16 -48 -21 0 -5 134 -9 300 -9 166 0 300 4
300 9 0 5 -21 14 -46 20 -59 15 -98 54 -120 122 -18 51 -19 120 -22 1107 l-3
1052 75 0 c160 0 337 -38 462 -100 92 -45 138 -90 154 -151 21 -75 31 -28 28
127 l-3 149 -811 3 c-446 1 -814 -1 -817 -5z"/>
<path d="M3071 3050 c0 -29 1 -32 10 -17 7 11 7 23 0 35 -9 14 -10 11 -10 -18z"/>
<path d="M1870 3035 c7 -9 15 -13 17 -11 7 7 -7 26 -19 26 -6 0 -6 -6 2 -15z"/>
<path d="M3097 3037 c-3 -8 -1 -20 4 -28 7 -11 9 -9 9 9 0 32 19 27 35 -10 8
-18 14 -26 15 -18 0 21 -28 60 -44 60 -8 0 -16 -6 -19 -13z"/>
<path d="M2040 3031 c0 -5 7 -12 16 -15 14 -5 15 -4 4 9 -14 17 -20 19 -20 6z"/>
<path d="M1946 2949 c34 -35 67 -74 73 -87 7 -12 16 -20 20 -17 5 2 14 -2 22
-11 7 -8 22 -20 33 -26 12 -6 -13 22 -54 62 -110 108 -164 154 -94 79z"/>
<path d="M2046 2985 c3 -7 14 -11 25 -8 27 7 24 18 -5 19 -16 1 -23 -3 -20
-11z"/>
<path d="M3099 2934 c28 -25 49 -50 45 -55 -3 -5 0 -9 5 -9 6 0 11 4 11 8 0
10 -93 102 -104 102 -4 0 15 -21 43 -46z"/>
<path d="M2030 2958 c0 -10 5 -18 12 -18 6 0 8 -3 5 -7 -8 -7 11 -33 24 -33 5
0 9 10 8 23 0 12 -3 16 -6 9 -4 -10 -11 -5 -24 15 -14 20 -19 23 -19 11z"/>
<path d="M3070 2937 c0 -2 15 -16 33 -33 l32 -29 -29 33 c-28 30 -36 37 -36
29z"/>
<path d="M2983 2850 c0 -30 2 -43 4 -27 2 15 2 39 0 55 -2 15 -4 2 -4 -28z"/>
<path d="M2036 2821 c-8 -12 14 -61 26 -61 5 0 6 -6 2 -12 -5 -10 -4 -10 6 -1
10 10 11 18 0 43 -14 34 -26 45 -34 31z m24 -31 c6 -11 8 -20 6 -20 -3 0 -10
9 -16 20 -6 11 -8 20 -6 20 3 0 10 -9 16 -20z"/>
<path d="M1903 2770 c0 -30 2 -43 4 -27 2 15 2 39 0 55 -2 15 -4 2 -4 -28z"/>
<path d="M3135 2770 c10 -11 20 -20 22 -20 7 0 -2 25 -12 32 -21 16 -27 7 -10
-12z"/>
<path d="M3132 2744 c10 -10 20 -16 22 -13 3 3 -5 11 -17 18 -21 13 -21 12 -5
-5z"/>
<path d="M2945 2711 c22 -24 56 -58 75 -75 19 -17 54 -49 78 -72 23 -23 42
-40 42 -38 0 2 39 -28 87 -66 48 -39 91 -70 95 -70 5 0 -21 23 -57 50 -67 51
-281 236 -287 248 -2 4 -19 20 -38 37 -33 29 -33 28 5 -14z"/>
<path d="M2056 2689 c21 -23 21 -23 21 -5 0 8 -9 17 -20 20 -18 4 -18 4 -1
-15z"/>
<path d="M3122 2670 c0 -14 2 -19 5 -12 2 6 2 18 0 25 -3 6 -5 1 -5 -13z"/>
<path d="M2052 2664 c10 -10 20 -16 22 -13 3 3 -5 11 -17 18 -21 13 -21 12 -5
-5z"/>
<path d="M1865 2631 c22 -24 60 -62 85 -85 24 -22 60 -56 80 -73 51 -47 172
-143 195 -154 11 -6 7 0 -10 13 -70 53 -215 179 -300 258 -49 46 -72 65 -50
41z"/>
<path d="M2030 2622 c6 -13 11 -33 10 -45 -3 -38 -1 -44 25 -61 l25 -16 -20
32 c-11 18 -20 42 -20 54 0 11 -7 29 -16 40 -14 18 -15 18 -4 -4z"/>
<path d="M3129 2616 c14 -14 26 -24 29 -22 7 7 -22 41 -38 44 -10 2 -6 -6 9
-22z"/>
<path d="M2983 2540 c0 -25 2 -35 4 -22 2 12 2 32 0 45 -2 12 -4 2 -4 -23z"/>
<path d="M1903 2460 c0 -25 2 -35 4 -22 2 12 2 32 0 45 -2 12 -4 2 -4 -23z"/>
<path d="M3160 2432 c0 -7 -7 -12 -16 -12 -11 0 -14 -6 -9 -21 5 -14 4 -19 -4
-15 -7 5 -9 1 -5 -8 3 -9 12 -16 20 -16 16 0 18 9 5 29 -7 10 -4 19 7 27 9 7
14 16 9 20 -4 4 -7 2 -7 -4z"/>
<path d="M2080 2352 c0 -7 -7 -12 -15 -12 -8 0 -15 -4 -15 -10 0 -5 7 -10 15
-10 17 0 32 27 21 37 -3 4 -6 1 -6 -5z"/>
<path d="M3120 2314 c0 -14 14 -29 28 -31 7 -2 12 7 11 20 0 12 -3 16 -6 9 -4
-10 -8 -10 -19 -1 -8 6 -14 8 -14 3z"/>
<path d="M2053 2302 c-13 -8 -5 -26 15 -29 14 -3 15 6 4 24 -4 7 -13 9 -19 5z"/>
<path d="M2046 2216 c3 -9 13 -16 22 -16 8 0 13 1 11 3 -2 1 -12 9 -22 16 -15
12 -17 12 -11 -3z"/>
<path d="M3170 2149 c0 -26 -3 -31 -20 -26 -12 3 -20 0 -20 -8 0 -8 9 -11 25
-7 21 4 25 10 25 38 0 19 -2 34 -5 34 -3 0 -5 -14 -5 -31z"/>
<path d="M2090 2069 c0 -26 -3 -31 -20 -26 -12 3 -20 0 -20 -8 0 -8 9 -11 25
-7 21 4 25 10 25 38 0 19 -2 34 -5 34 -3 0 -5 -14 -5 -31z"/>
<path d="M3132 2066 c-9 -20 -7 -27 10 -43 21 -18 21 -18 13 2 -4 11 -7 30 -6
43 1 28 -3 28 -17 -2z"/>
<path d="M2052 1986 c-9 -20 -7 -27 10 -43 21 -18 21 -18 13 2 -4 11 -7 30 -6
43 1 28 -3 28 -17 -2z"/>
</g>
</svg>
